<?xml version="1.0" encoding="UTF-8"?><svg id="Calque_2" xmlns="http://www.w3.org/2000/svg" viewBox="0 0 141.75 166.62"><defs><style>.cls-1{fill:#e52913;}</style></defs><g id="logo_MB_2022"><path class="cls-1" d="M85.93,107.31l-1.8,9.04,9.59-5.42,5.53-3.15c2.62,10.8,7.11,34.74-.35,50.9l-3.66,7.94,10.13-3.18c60.41-18.85,27.69-90.02,26.29-93.04l-1.9-3.98-4.93,1.89-12.07,4.64C119.63,30.69,76.56,6.43,76.11,6.17L64.88,0l3.62,10.25c.17,.5,3.91,13.98-25.53,30.83-27.04,15.46-25.18,41.38-22.51,53.48l-10.9-2.51-5.06-1.17-1.14,3.96c-12.15,41.66,10.87,59.41,32.31,66.96l10.72,3.77-4.06-8.51c-3.71-7.81-4.64-18.03-2.81-30.4l4.64,1.56,8.65,2.95-1.86-7.13c-.08-.3-7.24-29.1,9.44-43.18,9.25-7.78,13.52-15.11,15.43-20.8,6.53,8.99,14.48,25.15,10.1,47.25Z"/></g></svg>