<?xml version="1.0" encoding="utf-8"?>
<!-- Generator: Adobe Illustrator 27.2.0, SVG Export Plug-In . SVG Version: 6.00 Build 0)  -->
<svg version="1.1" id="Calque_1" xmlns="http://www.w3.org/2000/svg" xmlns:xlink="http://www.w3.org/1999/xlink" x="0px" y="0px"
	 viewBox="0 0 101 101" style="enable-background:new 0 0 101 101;" xml:space="preserve">
<style type="text/css">
	.st0{fill:#FFEDCE;}
</style>
<path id="Icon_awesome-phone-alt" class="st0" d="M98.2,71.4l-22.1-9.5c-1.9-0.8-4.2-0.3-5.5,1.4l-9.8,12c-15.4-7.2-27.7-19.6-35-35
	l12-9.8c1.6-1.3,2.2-3.6,1.4-5.5L29.6,2.9c-0.9-2.1-3.2-3.3-5.4-2.7L3.7,4.9C1.5,5.4,0,7.3,0,9.5C0,60,41,101,91.5,101c0,0,0,0,0,0
	c2.2,0,4.1-1.5,4.6-3.7l4.7-20.5C101.4,74.6,100.3,72.3,98.2,71.4z"/>
</svg>
